<?xml version="1.0" encoding="UTF-8" standalone="no"?>
<!DOCTYPE svg PUBLIC "-//W3C//DTD SVG 1.1//EN" "http://www.w3.org/Graphics/SVG/1.1/DTD/svg11.dtd">
<svg width="100%" height="100%" viewBox="0 0 348 67" version="1.1" xmlns="http://www.w3.org/2000/svg" xmlns:xlink="http://www.w3.org/1999/xlink" xml:space="preserve" xmlns:serif="http://www.serif.com/" style="fill-rule:evenodd;clip-rule:evenodd;stroke-linejoin:round;stroke-miterlimit:1.41421;">
    <g transform="matrix(1,0,0,1,-104,-520.317)">
        <g>
            <g transform="matrix(0.371179,0,0,0.371179,154.018,387.136)">
                <g transform="matrix(1.73221,0,0,1.73221,-1055.1,-288.923)">
                    <path d="M1072.56,464.459C1072.03,465.994 1071.09,468.466 1070.41,469.603C1069.37,469.803 1066.21,470.469 1063.51,470.469C1054.15,470.469 1050.06,464.727 1050.06,459.414C1050.06,452.365 1056.14,447.756 1064.52,447.756C1067.56,447.756 1070.12,448.49 1071.17,448.657C1071.47,450.53 1071.69,451.899 1071.92,453.669L1070.83,453.934C1069.82,450.395 1067.56,448.96 1063.51,448.96C1057.24,448.96 1053.89,453.669 1053.89,458.746C1053.89,464.992 1058.02,469.268 1063.73,469.268C1067.56,469.268 1069.59,467.433 1071.47,464.126L1072.56,464.459Z" style="fill:white;fill-rule:nonzero;"/>
                </g>
                <g transform="matrix(1.73221,0,0,1.73221,-1055.1,-288.919)">
                    <path d="M1047.17,464.724C1046.94,465.758 1046.16,468.932 1045.82,469.969L1028.81,469.969L1028.81,469.032C1031.96,468.832 1032.26,468.599 1032.26,465.758L1032.26,452.395C1032.26,449.558 1032.04,449.391 1028.96,449.19L1028.96,448.254L1038.76,448.254L1038.76,449.19C1035.79,449.391 1035.45,449.524 1035.45,452.395L1035.45,465.59C1035.45,467.395 1035.64,468.063 1036.32,468.399C1037.07,468.765 1038.35,468.832 1039.92,468.832C1041.99,468.832 1043.27,468.664 1044.13,467.796C1044.81,467.127 1045.48,466.061 1046.04,464.524L1047.17,464.724Z" style="fill:white;fill-rule:nonzero;"/>
                </g>
                <g transform="matrix(1.73221,0,0,1.73221,-1055.1,-288.919)">
                    <path d="M1025.92,464.724C1025.69,465.758 1024.9,468.932 1024.57,469.969L1007.55,469.969L1007.55,469.032C1010.71,468.832 1011.01,468.599 1011.01,465.758L1011.01,452.395C1011.01,449.558 1010.78,449.391 1007.71,449.19L1007.71,448.254L1017.51,448.254L1017.51,449.19C1014.54,449.391 1014.2,449.524 1014.2,452.395L1014.2,465.59C1014.2,467.395 1014.39,468.063 1015.06,468.399C1015.82,468.765 1017.1,468.832 1018.67,468.832C1020.74,468.832 1022.02,468.664 1022.88,467.796C1023.55,467.127 1024.23,466.061 1024.79,464.524L1025.92,464.724Z" style="fill:white;fill-rule:nonzero;"/>
                </g>
                <g transform="matrix(1.73221,0,0,1.73221,-1055.1,-288.919)">
                    <path d="M992.162,459.48C992.646,459.647 993.665,459.88 994.903,459.88C997.341,459.88 1000.35,458.711 1000.35,454.468C1000.35,450.86 997.758,449.323 994.678,449.323C993.626,449.323 992.837,449.491 992.573,449.724C992.275,449.924 992.162,450.327 992.162,451.296L992.162,459.48ZM995.202,448.254C997.87,448.254 1000.05,448.655 1001.55,449.624C1003.01,450.625 1003.96,452.162 1003.96,454.333C1003.96,458.678 1000.31,460.781 996.631,461.182C996.069,461.249 995.354,461.249 994.938,461.217L992.162,460.581L992.162,465.826C992.162,468.664 992.5,468.832 995.878,469.032L995.878,469.969L985.7,469.969L985.7,469.032C988.705,468.832 989.004,468.564 989.004,465.791L989.004,452.43C989.004,449.491 988.705,449.358 985.925,449.19L985.925,448.254L995.202,448.254Z" style="fill:white;fill-rule:nonzero;"/>
                </g>
                <g transform="matrix(1.73221,0,0,1.73221,-1055.1,-252.059)">
                    <path d="M968.579,447.954C968.579,450.56 965.985,451.962 963.659,452.598L963.243,451.628C965.084,450.96 966.136,450.059 966.136,448.787C966.136,447.586 965.084,446.85 963.806,446.552C963.62,446.552 963.321,446.284 963.321,445.748C963.321,444.912 964.222,444.346 965.157,444.346C966.514,444.346 968.579,445.648 968.579,447.954" style="fill:white;fill-rule:nonzero;"/>
                </g>
                <g transform="matrix(1.73221,0,0,1.73221,-1055.1,-301.691)">
                    <path d="M941.766,463.024C944.312,463.024 945.996,462.661 947.269,461.711C949.256,460.351 950.069,458.539 950.069,456.094C950.069,451.2 946.451,449.389 942.632,449.389C941.154,449.389 940.287,449.568 939.881,449.843C939.475,450.066 939.323,450.565 939.323,451.836L939.323,463.024L941.766,463.024ZM960.462,477.703C959.85,477.703 959.238,477.703 958.68,477.659C954.808,477.477 952.718,476.48 950.426,473.537C948.644,471.315 946.809,468.506 945.281,466.287C944.415,465.018 943.548,464.475 940.953,464.475L939.323,464.475L939.323,471.678C939.323,475.53 939.778,475.8 943.802,476.073L943.802,477.342L930.457,477.342L930.457,476.073C934.633,475.8 935.039,475.53 935.039,471.678L935.039,453.466C935.039,449.614 934.633,449.48 930.658,449.163L930.658,447.894L943.293,447.894C947.014,447.894 949.511,448.301 951.396,449.433C953.481,450.611 954.808,452.651 954.808,455.367C954.808,459.265 952.057,461.664 948.336,463.16C949.202,464.61 951.342,467.645 952.874,469.685C954.705,472.042 955.724,473.22 956.997,474.396C958.323,475.754 959.547,476.252 960.668,476.527L960.462,477.703Z" style="fill:white;fill-rule:nonzero;"/>
                </g>
                <g transform="matrix(1.73221,0,0,1.73221,-1055.1,-302.316)">
                    <path d="M925.968,470.544C925.659,472.039 924.641,476.296 924.18,477.703L899.629,477.703L899.629,476.433C904.265,476.114 904.672,475.753 904.672,472.039L904.672,454.009C904.672,449.975 904.265,449.794 900.29,449.523L900.29,448.254L923.011,448.254C923.011,449.388 923.265,452.467 923.417,454.777L921.944,454.959C921.483,453.056 920.974,452.06 920.313,451.107C919.599,450.11 918.223,449.794 914.556,449.794L910.684,449.794C909.102,449.794 908.999,449.929 908.999,451.244L908.999,461.573L913.792,461.573C918.428,461.573 918.683,461.21 919.29,458.175L920.768,458.175L920.768,466.829L919.29,466.829C918.629,463.613 918.272,463.341 913.841,463.341L908.999,463.341L908.999,471.903C908.999,474.032 909.308,475.029 910.223,475.572C911.193,476.161 912.975,476.161 915.521,476.161C919.393,476.161 920.822,475.797 921.944,474.619C922.81,473.715 923.775,472.129 924.489,470.362L925.968,470.544Z" style="fill:white;fill-rule:nonzero;"/>
                </g>
                <g transform="matrix(1.73221,0,0,1.73221,-1055.1,-302.316)">
                    <path d="M897.074,470.59C896.765,471.992 895.698,476.296 895.237,477.703L872.16,477.703L872.16,476.433C876.438,476.161 876.849,475.844 876.849,471.992L876.849,453.871C876.849,450.022 876.541,449.794 872.365,449.523L872.365,448.254L885.662,448.254L885.662,449.523C881.637,449.794 881.177,449.975 881.177,453.871L881.177,471.766C881.177,474.214 881.432,475.117 882.352,475.572C883.371,476.07 885.099,476.161 887.243,476.161C890.044,476.161 891.776,475.935 892.947,474.757C893.862,473.851 894.782,472.402 895.546,470.316L897.074,470.59Z" style="fill:white;fill-rule:nonzero;"/>
                </g>
                <g transform="matrix(1.73221,0,0,1.73221,-1055.1,-302.316)">
                    <path d="M867.719,465.29C864.659,465.651 864.459,465.877 864.459,468.551L864.459,472.446C864.459,474.032 864.508,475.481 864.816,476.75C861.654,477.386 857.478,478.383 853.404,478.383C842.193,478.383 834.708,472.174 834.708,463.159C834.708,452.695 844.181,447.574 854.168,447.574C858.447,447.574 862.319,448.571 863.999,448.89C864.15,450.474 864.405,452.966 864.762,455.956L863.337,456.226C862.114,450.655 858.295,449.16 853.404,449.16C845.605,449.16 839.902,454.279 839.902,462.617C839.902,469.184 844.23,476.795 854.065,476.795C855.798,476.795 857.375,476.525 858.496,476.026C859.514,475.528 860.126,474.938 860.126,473.036L860.126,469.184C860.126,465.923 859.822,465.607 854.78,465.29L854.78,464.018L867.719,464.018L867.719,465.29Z" style="fill:white;fill-rule:nonzero;"/>
                </g>
                <g transform="matrix(1.73221,0,0,1.73221,-1055.1,-301.614)">
                    <path d="M831.183,449.118C828.329,449.253 827.105,449.843 826.904,451.792C826.699,453.194 826.596,455.234 826.596,459.447L826.596,477.703L825.019,477.703L803.317,453.965L803.214,453.965L803.214,465.336C803.214,469.505 803.366,471.681 803.517,472.994C803.772,475.304 804.947,475.846 808.408,476.028L808.408,477.298L796.336,477.298L796.336,476.028C799.239,475.891 800.565,475.304 800.82,473.083C800.972,471.681 801.124,469.459 801.124,465.336L801.124,455.369C801.124,452.062 801.021,451.836 800.105,450.795C799.033,449.661 797.966,449.3 795.572,449.118L795.572,447.849L803.057,447.849L824.353,470.59L824.51,470.59L824.51,459.447C824.51,455.234 824.353,453.194 824.153,451.927C823.898,449.843 822.723,449.253 819.159,449.118L819.159,447.849L831.183,447.849L831.183,449.118Z" style="fill:white;fill-rule:nonzero;"/>
                </g>
                <g transform="matrix(1.73221,0,0,1.73221,-1055.1,-303.494)">
                    <path d="M775.744,454.144L775.641,454.144C774.011,457.996 772.43,461.982 770.854,465.695L780.224,465.695L775.744,454.144ZM780.738,478.383L780.738,477.113C783.945,476.75 784.405,476.389 783.739,474.622C783.078,472.854 782.06,470.409 780.939,467.645L770.09,467.645C769.272,469.682 768.509,471.587 767.848,473.487C766.776,476.343 767.182,476.794 771.055,477.113L771.055,478.383L759.951,478.383L759.951,477.113C763.212,476.706 763.921,476.433 765.655,472.402L776.2,448.662L777.781,448.254C780.939,456.002 784.351,464.654 787.611,472.537C789.193,476.433 789.908,476.841 793.217,477.113L793.217,478.383L780.738,478.383Z" style="fill:white;fill-rule:nonzero;"/>
                </g>
                <g transform="matrix(1.73221,0,0,1.73221,-1055.1,-302.316)">
                    <path d="M743.947,463.476C744.608,463.701 745.984,464.018 747.668,464.018C750.977,464.018 755.055,462.435 755.055,456.68C755.055,451.787 751.54,449.705 747.359,449.705C745.935,449.705 744.863,449.929 744.505,450.248C744.099,450.52 743.947,451.063 743.947,452.376L743.947,463.476ZM748.074,448.254C751.692,448.254 754.644,448.797 756.686,450.11C758.668,451.47 759.946,453.555 759.946,456.501C759.946,462.388 755.002,465.243 750.008,465.788C749.244,465.876 748.28,465.876 747.717,465.832L743.947,464.971L743.947,472.085C743.947,475.935 744.407,476.161 748.99,476.433L748.99,477.703L735.183,477.703L735.183,476.433C739.261,476.161 739.667,475.797 739.667,472.039L739.667,453.915C739.667,449.929 739.261,449.749 735.491,449.523L735.491,448.254L748.074,448.254Z" style="fill:white;fill-rule:nonzero;"/>
                </g>
                <g transform="matrix(1.73221,0,0,1.73221,-1055.1,-313.055)">
                    <path d="M725.622,456.538C724.574,453.082 722.91,449.3 717.539,449.3C712.79,449.3 710.692,452.314 710.692,455.276C710.692,459.279 713.654,461.198 718.528,463.392C723.401,465.639 729.2,468.164 729.2,474.358C729.2,480.118 723.71,484.722 715.505,484.722C712.976,484.722 710.94,484.284 709.459,483.902C707.916,483.462 706.991,483.024 706.374,482.749C705.941,481.597 705.138,476.883 704.707,474.249L706.558,473.865C707.483,477.211 710.259,482.749 716.677,482.749C721.365,482.749 724.079,480.171 724.079,476.17C724.079,472.111 720.687,470.192 716.06,467.999C712.11,466.079 705.88,463.392 705.88,457.195C705.88,451.932 710.631,447.435 718.589,447.435C721.426,447.435 724.018,448.038 726.361,448.694C726.611,450.613 726.919,452.807 727.411,456.263L725.622,456.538Z" style="fill:white;fill-rule:nonzero;"/>
                </g>
                <g transform="matrix(1.73221,0,0,1.73221,-1055.1,-304.195)">
                    <path d="M659.8,453.79C659.8,456.27 661.464,457.94 664.681,460.133C667.202,458.464 668.648,456.603 668.648,454.027C668.648,451.307 666.825,449.018 664.144,449.018C661.677,449.018 659.8,450.925 659.8,453.79ZM672.347,471.871C669.508,469.053 666.076,466.144 661.195,462.616C657.655,464.856 656.314,467.099 656.314,469.435C656.314,474.016 660.23,476.212 663.77,476.212C667.361,476.212 670.58,474.065 672.347,471.871ZM687.308,459.751C683.555,460.133 682.858,460.993 681.088,463.329C679.588,465.192 678.3,467.148 676.425,469.675C678.677,471.631 683.555,476.449 685.164,479.216L684.787,479.645C681.84,479.407 678.89,478.308 678.247,477.688C677.605,477.022 675.35,474.78 673.581,473.156C669.721,477.737 666.181,479.454 662.321,479.454C655.565,479.454 651.756,474.971 651.756,470.818C651.756,466.384 655.242,464.474 659.8,461.563C657.386,459.561 655.939,457.511 655.939,454.936C655.939,450.641 660.015,447.397 664.734,447.397C669.077,447.397 672.67,450.163 672.67,453.981C672.67,455.937 671.544,457.32 670.418,458.177C669.4,458.941 668.166,459.847 666.076,461.088C667.843,462.425 671.652,465.334 675.084,468.482C676.371,466.717 677.282,465.094 678.3,462.996C679.372,460.753 678.836,460.18 675.03,459.751L675.03,458.415L687.308,458.415L687.308,459.751Z" style="fill:white;fill-rule:nonzero;"/>
                </g>
                <g transform="matrix(1.73221,0,0,1.73221,-344.895,-410.847)">
                    <path d="M272.155,457.716C271.546,455.082 270.934,453.711 270.261,452.835C269.22,451.517 268.244,451.079 263.6,451.079L259.321,451.079L259.321,478.112C259.321,482.446 259.811,482.994 265.554,483.325L265.554,484.859L248.076,484.859L248.076,483.325C253.638,482.994 254.125,482.446 254.125,478.112L254.125,451.079L250.335,451.079C245.261,451.079 244.042,451.573 243.244,452.779C242.512,453.711 242.025,455.301 241.291,457.716L239.518,457.716C239.822,454.423 240.13,450.86 240.253,447.844L241.472,447.844C242.329,449.104 243.124,449.216 244.835,449.216L268.976,449.216C270.626,449.216 271.115,448.885 272.033,447.844L273.318,447.844C273.377,450.366 273.622,454.37 273.989,457.549L272.155,457.716Z" style="fill:white;fill-rule:nonzero;"/>
                </g>
                <g transform="matrix(1.73221,0,0,1.73221,-344.895,-399.874)">
                    <path d="M423.586,463.413C426.113,463.413 427.777,463.049 429.04,462.099C431.008,460.739 431.816,458.927 431.816,456.482C431.816,451.586 428.232,449.775 424.443,449.775C422.98,449.775 422.123,449.956 421.716,450.229C421.315,450.455 421.163,450.953 421.163,452.222L421.163,463.413L423.586,463.413ZM442.117,478.089C441.509,478.089 440.902,478.089 440.349,478.045C436.511,477.865 434.44,476.869 432.169,473.923C430.401,471.703 428.585,468.894 427.067,466.673C426.211,465.406 425.354,464.861 422.778,464.861L421.163,464.861L421.163,472.066C421.163,475.916 421.619,476.188 425.603,476.459L425.603,477.728L412.38,477.728L412.38,476.459C416.517,476.188 416.923,475.916 416.923,472.066L416.923,453.853C416.923,450.003 416.517,449.868 412.581,449.549L412.581,448.279L425.099,448.279C428.785,448.279 431.258,448.689 433.128,449.821C435.199,451 436.511,453.037 436.511,455.755C436.511,459.651 433.784,462.052 430.098,463.547C430.959,464.996 433.079,468.033 434.592,470.073C436.408,472.428 437.421,473.606 438.68,474.782C439.992,476.142 441.206,476.64 442.317,476.913L442.117,478.089Z" style="fill:white;fill-rule:nonzero;"/>
                </g>
                <g transform="matrix(1.73221,0,0,1.73221,-344.895,-400.499)">
                    <path d="M408.342,470.932C408.038,472.427 407.03,476.685 406.574,478.089L382.238,478.089L382.238,476.819C386.835,476.503 387.236,476.139 387.236,472.427L387.236,454.395C387.236,450.363 386.835,450.182 382.899,449.91L382.899,448.64L405.414,448.64C405.414,449.774 405.664,452.855 405.816,455.166L404.351,455.347C403.901,453.442 403.392,452.446 402.736,451.496C402.031,450.499 400.67,450.182 397.032,450.182L393.194,450.182C391.633,450.182 391.53,450.317 391.53,451.631L391.53,461.961L396.273,461.961C400.871,461.961 401.12,461.598 401.727,458.561L403.191,458.561L403.191,467.215L401.727,467.215C401.071,463.999 400.719,463.727 396.327,463.727L391.53,463.727L391.53,472.29C391.53,474.421 391.833,475.418 392.739,475.958C393.699,476.549 395.466,476.549 397.992,476.549C401.83,476.549 403.24,476.186 404.351,475.008C405.213,474.102 406.173,472.516 406.878,470.75L408.342,470.932Z" style="fill:white;fill-rule:nonzero;"/>
                </g>
                <g transform="matrix(1.73221,0,0,1.73221,-344.895,-400.499)">
                    <path d="M354.93,472.153C354.93,475.597 356.599,476.456 360.281,476.456C369.671,476.456 374.067,470.115 374.067,462.867C374.067,458.2 372.148,454.122 368.109,451.994C365.837,450.727 362.91,450.136 359.527,450.136C357.407,450.136 356.09,450.363 355.586,450.727C355.131,450.997 354.93,451.496 354.93,453.307L354.93,472.153ZM360.486,448.64C366.895,448.64 371.59,449.774 374.723,452.492C377.244,454.667 379.011,457.974 379.011,462.232C379.011,467.67 376.642,471.701 372.804,474.328C369.015,476.955 363.967,478.089 357.809,478.089L345.893,478.089L345.893,476.866C350.235,476.594 350.641,476.321 350.641,472.471L350.641,454.258C350.641,450.363 350.235,450.182 346.348,449.91L346.348,448.64L360.486,448.64Z" style="fill:white;fill-rule:nonzero;"/>
                </g>
                <g transform="matrix(1.73221,0,0,1.73221,-344.895,-401.677)">
                    <path d="M325.951,454.532L325.853,454.532C324.238,458.382 322.671,462.369 321.105,466.084L330.397,466.084L325.951,454.532ZM330.901,478.769L330.901,477.499C334.083,477.136 334.536,476.775 333.88,475.008C333.221,473.242 332.213,470.795 331.102,468.03L320.351,468.03C319.543,470.07 318.784,471.973 318.128,473.876C317.066,476.731 317.472,477.183 321.31,477.499L321.31,478.769L310.302,478.769L310.302,477.499C313.533,477.092 314.241,476.819 315.957,472.788L326.407,449.05L327.973,448.64C331.102,456.388 334.484,465.04 337.715,472.926C339.282,476.819 339.987,477.229 343.268,477.499L343.268,478.769L330.901,478.769Z" style="fill:white;fill-rule:nonzero;"/>
                </g>
                <g transform="matrix(1.73221,0,0,1.73221,-344.895,-399.874)">
                    <path d="M289.861,463.413C292.382,463.413 294.051,463.049 295.312,462.099C297.282,460.739 298.09,458.927 298.09,456.482C298.09,451.586 294.504,449.775 290.717,449.775C289.253,449.775 288.397,449.956 287.99,450.229C287.589,450.455 287.437,450.953 287.437,452.222L287.437,463.413L289.861,463.413ZM308.388,478.089C307.784,478.089 307.176,478.089 306.621,478.045C302.785,477.865 300.714,476.869 298.443,473.923C296.675,471.703 294.859,468.894 293.341,466.673C292.484,465.406 291.628,464.861 289.053,464.861L287.437,464.861L287.437,472.066C287.437,475.916 287.89,476.188 291.878,476.459L291.878,477.728L278.649,477.728L278.649,476.459C282.791,476.188 283.195,475.916 283.195,472.066L283.195,453.853C283.195,450.003 282.791,449.868 278.855,449.549L278.855,448.279L291.373,448.279C295.06,448.279 297.532,448.689 299.402,449.821C301.473,451 302.785,453.037 302.785,455.755C302.785,459.651 300.058,462.052 296.372,463.547C297.228,464.996 299.351,468.033 300.866,470.073C302.682,472.428 303.691,473.606 304.954,474.782C306.266,476.142 307.48,476.64 308.591,476.913L308.388,478.089Z" style="fill:white;fill-rule:nonzero;"/>
                </g>
                <g transform="matrix(1.73221,0,0,1.73221,-344.895,-409.989)">
                    <path d="M464.295,464.952C464.295,475.263 470.588,482.772 479.203,482.772C486.047,482.772 492.097,477.676 492.097,467.145C492.097,455.578 485.372,449.436 477.307,449.436C470.523,449.436 464.295,454.645 464.295,464.952ZM498.33,465.666C498.33,477.51 489.099,484.748 477.918,484.748C466.861,484.748 458.062,477.073 458.062,466.489C458.062,456.621 465.759,447.46 478.652,447.46C488.98,447.46 498.33,454.645 498.33,465.666" style="fill:white;fill-rule:nonzero;"/>
                </g>
                <g transform="matrix(1.73221,0,0,1.73221,-344.895,-399.874)">
                    <path d="M512.964,463.413C515.49,463.413 517.155,463.049 518.418,462.099C520.386,460.739 521.194,458.927 521.194,456.482C521.194,451.586 517.61,449.775 513.821,449.775C512.357,449.775 511.5,449.956 511.094,450.229C510.693,450.455 510.541,450.953 510.541,452.222L510.541,463.413L512.964,463.413ZM531.494,478.089C530.887,478.089 530.28,478.089 529.727,478.045C525.889,477.865 523.818,476.869 521.546,473.923C519.779,471.703 517.962,468.894 516.45,466.673C515.588,465.406 514.731,464.861 512.156,464.861L510.541,464.861L510.541,472.066C510.541,475.916 510.996,476.188 514.981,476.459L514.981,477.728L501.758,477.728L501.758,476.459C505.895,476.188 506.301,475.916 506.301,472.066L506.301,453.853C506.301,450.003 505.895,449.868 501.959,449.549L501.959,448.279L514.477,448.279C518.163,448.279 520.635,448.689 522.505,449.821C524.576,451 525.889,453.037 525.889,455.755C525.889,459.651 523.162,462.052 519.475,463.547C520.337,464.996 522.456,468.033 523.969,470.073C525.786,472.428 526.799,473.606 528.057,474.782C529.374,476.142 530.583,476.64 531.695,476.913L531.494,478.089Z" style="fill:white;fill-rule:nonzero;"/>
                </g>
                <g transform="matrix(1.73221,0,0,1.73221,-344.895,-401.209)">
                    <path d="M559.735,456.435C559.231,454.26 558.727,453.128 558.174,452.402C557.312,451.316 556.504,450.953 552.671,450.953L549.137,450.953L549.137,473.287C549.137,476.866 549.538,477.32 554.287,477.59L554.287,478.86L539.844,478.86L539.844,477.59C544.442,477.32 544.843,476.866 544.843,473.287L544.843,450.953L541.715,450.953C537.524,450.953 536.515,451.36 535.859,452.357C535.252,453.128 534.846,454.442 534.244,456.435L532.775,456.435C533.03,453.715 533.284,450.771 533.382,448.279L534.391,448.279C535.1,449.323 535.757,449.411 537.171,449.411L557.111,449.411C558.477,449.411 558.879,449.141 559.638,448.279L560.695,448.279C560.749,450.364 560.949,453.671 561.253,456.3L559.735,456.435Z" style="fill:white;fill-rule:nonzero;"/>
                </g>
                <g transform="matrix(1.73221,0,0,1.73221,-344.895,-399.188)">
                    <path d="M569.2,462.035C569.2,470.554 574.399,476.758 581.517,476.758C587.172,476.758 592.17,472.547 592.17,463.846C592.17,454.289 586.614,449.214 579.951,449.214C574.345,449.214 569.2,453.518 569.2,462.035ZM597.32,462.624C597.32,472.41 589.693,478.39 580.455,478.39C571.32,478.39 564.049,472.049 564.049,463.304C564.049,455.151 570.409,447.582 581.062,447.582C589.595,447.582 597.32,453.518 597.32,462.624" style="fill:white;fill-rule:nonzero;"/>
                </g>
                <g transform="matrix(1.73221,0,0,1.73221,-344.895,-399.951)">
                    <path d="M634.887,449.549C632.032,449.684 630.808,450.273 630.608,452.222C630.402,453.624 630.299,455.664 630.299,459.877L630.299,478.133L628.723,478.133L607.02,454.395L606.918,454.395L606.918,465.767C606.918,469.936 607.069,472.111 607.221,473.424C607.476,475.735 608.651,476.277 612.112,476.459L612.112,477.728L600.039,477.728L600.039,476.459C602.942,476.321 604.269,475.735 604.524,473.513C604.676,472.111 604.827,469.889 604.827,465.767L604.827,455.799C604.827,452.492 604.724,452.267 603.809,451.225C602.737,450.091 601.669,449.73 599.276,449.549L599.276,448.279L606.761,448.279L628.057,471.021L628.214,471.021L628.214,459.877C628.214,455.664 628.057,453.624 627.856,452.357C627.602,450.273 626.427,449.684 622.863,449.549L622.863,448.279L634.887,448.279L634.887,449.549Z" style="fill:white;fill-rule:nonzero;"/>
                </g>
            </g>
            <g transform="matrix(1,0,0,1,0,85)">
                <g transform="matrix(0.712353,0,0,0.712353,16.381,167.403)">
                    <rect x="123" y="376.097" width="43.194" height="43.194" style="fill:white;"/>
                </g>
                <g transform="matrix(0.712353,0,0,0.712353,53.1359,167.403)">
                    <rect x="123" y="376.097" width="43.194" height="43.194" style="fill:white;"/>
                </g>
                <g transform="matrix(0.712353,0,0,0.712353,53.1359,202.837)">
                    <rect x="123" y="376.097" width="43.194" height="43.194" style="fill:white;"/>
                </g>
                <g transform="matrix(0.712353,0,0,0.712353,16.381,202.973)">
                    <rect x="123" y="376.097" width="43.194" height="43.194" style="fill:white;"/>
                </g>
            </g>
        </g>
    </g>
</svg>
