<?xml version="1.0" encoding="UTF-8" standalone="no"?>
<!DOCTYPE svg PUBLIC "-//W3C//DTD SVG 1.1//EN" "http://www.w3.org/Graphics/SVG/1.1/DTD/svg11.dtd">
<svg width="100%" height="100%" viewBox="0 0 1072 68" version="1.1" xmlns="http://www.w3.org/2000/svg" xmlns:xlink="http://www.w3.org/1999/xlink" xml:space="preserve" xmlns:serif="http://www.serif.com/" style="fill-rule:evenodd;clip-rule:evenodd;stroke-linejoin:round;stroke-miterlimit:1.41421;">
    <g transform="matrix(1,0,0,1,-104,-183.344)">
        <g transform="matrix(1,0,0,1,-55.9996,-192.754)">
            <g transform="matrix(0.681219,0,0,0.681219,201.315,127.512)">
                <g transform="matrix(1.73221,0,0,1.73221,-344.895,-385.769)">
                    <path d="M1072.56,464.459C1072.03,465.994 1071.09,468.466 1070.41,469.603C1069.37,469.803 1066.21,470.469 1063.51,470.469C1054.15,470.469 1050.06,464.727 1050.06,459.414C1050.06,452.365 1056.14,447.756 1064.52,447.756C1067.56,447.756 1070.12,448.49 1071.17,448.657C1071.47,450.53 1071.69,451.899 1071.92,453.669L1070.83,453.934C1069.82,450.395 1067.56,448.96 1063.51,448.96C1057.24,448.96 1053.89,453.669 1053.89,458.746C1053.89,464.992 1058.02,469.268 1063.73,469.268C1067.56,469.268 1069.59,467.433 1071.47,464.126L1072.56,464.459Z" style="fill:rgb(3,4,5);fill-rule:nonzero;"/>
                </g>
                <g transform="matrix(1.73221,0,0,1.73221,-344.895,-385.765)">
                    <path d="M1047.17,464.724C1046.94,465.758 1046.16,468.932 1045.82,469.969L1028.81,469.969L1028.81,469.032C1031.96,468.832 1032.26,468.599 1032.26,465.758L1032.26,452.395C1032.26,449.558 1032.04,449.391 1028.96,449.19L1028.96,448.254L1038.76,448.254L1038.76,449.19C1035.79,449.391 1035.45,449.524 1035.45,452.395L1035.45,465.59C1035.45,467.395 1035.64,468.063 1036.32,468.399C1037.07,468.765 1038.35,468.832 1039.92,468.832C1041.99,468.832 1043.27,468.664 1044.13,467.796C1044.81,467.127 1045.48,466.061 1046.04,464.524L1047.17,464.724Z" style="fill:rgb(3,4,5);fill-rule:nonzero;"/>
                </g>
                <g transform="matrix(1.73221,0,0,1.73221,-344.895,-385.765)">
                    <path d="M1025.92,464.724C1025.69,465.758 1024.9,468.932 1024.57,469.969L1007.55,469.969L1007.55,469.032C1010.71,468.832 1011.01,468.599 1011.01,465.758L1011.01,452.395C1011.01,449.558 1010.78,449.391 1007.71,449.19L1007.71,448.254L1017.51,448.254L1017.51,449.19C1014.54,449.391 1014.2,449.524 1014.2,452.395L1014.2,465.59C1014.2,467.395 1014.39,468.063 1015.06,468.399C1015.82,468.765 1017.1,468.832 1018.67,468.832C1020.74,468.832 1022.02,468.664 1022.88,467.796C1023.55,467.127 1024.23,466.061 1024.79,464.524L1025.92,464.724Z" style="fill:rgb(3,4,5);fill-rule:nonzero;"/>
                </g>
                <g transform="matrix(1.73221,0,0,1.73221,-344.895,-385.765)">
                    <path d="M992.162,459.48C992.646,459.647 993.665,459.88 994.903,459.88C997.341,459.88 1000.35,458.711 1000.35,454.468C1000.35,450.86 997.758,449.323 994.678,449.323C993.626,449.323 992.837,449.491 992.573,449.724C992.275,449.924 992.162,450.327 992.162,451.296L992.162,459.48ZM995.202,448.254C997.87,448.254 1000.05,448.655 1001.55,449.624C1003.01,450.625 1003.96,452.162 1003.96,454.333C1003.96,458.678 1000.31,460.781 996.631,461.182C996.069,461.249 995.354,461.249 994.938,461.217L992.162,460.581L992.162,465.826C992.162,468.664 992.5,468.832 995.878,469.032L995.878,469.969L985.7,469.969L985.7,469.032C988.705,468.832 989.004,468.564 989.004,465.791L989.004,452.43C989.004,449.491 988.705,449.358 985.925,449.19L985.925,448.254L995.202,448.254Z" style="fill:rgb(3,4,5);fill-rule:nonzero;"/>
                </g>
                <g transform="matrix(1.73221,0,0,1.73221,-344.895,-348.905)">
                    <path d="M968.579,447.954C968.579,450.56 965.985,451.962 963.659,452.598L963.243,451.628C965.084,450.96 966.136,450.059 966.136,448.787C966.136,447.586 965.084,446.85 963.806,446.552C963.62,446.552 963.321,446.284 963.321,445.748C963.321,444.912 964.222,444.346 965.157,444.346C966.514,444.346 968.579,445.648 968.579,447.954" style="fill:rgb(3,4,5);fill-rule:nonzero;"/>
                </g>
                <g transform="matrix(1.73221,0,0,1.73221,-344.895,-398.537)">
                    <path d="M941.766,463.024C944.312,463.024 945.996,462.661 947.269,461.711C949.256,460.351 950.069,458.539 950.069,456.094C950.069,451.2 946.451,449.389 942.632,449.389C941.154,449.389 940.287,449.568 939.881,449.843C939.475,450.066 939.323,450.565 939.323,451.836L939.323,463.024L941.766,463.024ZM960.462,477.703C959.85,477.703 959.238,477.703 958.68,477.659C954.808,477.477 952.718,476.48 950.426,473.537C948.644,471.315 946.809,468.506 945.281,466.287C944.415,465.018 943.548,464.475 940.953,464.475L939.323,464.475L939.323,471.678C939.323,475.53 939.778,475.8 943.802,476.073L943.802,477.342L930.457,477.342L930.457,476.073C934.633,475.8 935.039,475.53 935.039,471.678L935.039,453.466C935.039,449.614 934.633,449.48 930.658,449.163L930.658,447.894L943.293,447.894C947.014,447.894 949.511,448.301 951.396,449.433C953.481,450.611 954.808,452.651 954.808,455.367C954.808,459.265 952.057,461.664 948.336,463.16C949.202,464.61 951.342,467.645 952.874,469.685C954.705,472.042 955.724,473.22 956.997,474.396C958.323,475.754 959.547,476.252 960.668,476.527L960.462,477.703Z" style="fill:rgb(3,4,5);fill-rule:nonzero;"/>
                </g>
                <g transform="matrix(1.73221,0,0,1.73221,-344.895,-399.161)">
                    <path d="M925.968,470.544C925.659,472.039 924.641,476.296 924.18,477.703L899.629,477.703L899.629,476.433C904.265,476.114 904.672,475.753 904.672,472.039L904.672,454.009C904.672,449.975 904.265,449.794 900.29,449.523L900.29,448.254L923.011,448.254C923.011,449.388 923.265,452.467 923.417,454.777L921.944,454.959C921.483,453.056 920.974,452.06 920.313,451.107C919.599,450.11 918.223,449.794 914.556,449.794L910.684,449.794C909.102,449.794 908.999,449.929 908.999,451.244L908.999,461.573L913.792,461.573C918.428,461.573 918.683,461.21 919.29,458.175L920.768,458.175L920.768,466.829L919.29,466.829C918.629,463.613 918.272,463.341 913.841,463.341L908.999,463.341L908.999,471.903C908.999,474.032 909.308,475.029 910.223,475.572C911.193,476.161 912.975,476.161 915.521,476.161C919.393,476.161 920.822,475.797 921.944,474.619C922.81,473.715 923.775,472.129 924.489,470.362L925.968,470.544Z" style="fill:rgb(3,4,5);fill-rule:nonzero;"/>
                </g>
                <g transform="matrix(1.73221,0,0,1.73221,-344.895,-399.161)">
                    <path d="M897.074,470.59C896.765,471.992 895.698,476.296 895.237,477.703L872.16,477.703L872.16,476.433C876.438,476.161 876.849,475.844 876.849,471.992L876.849,453.871C876.849,450.022 876.541,449.794 872.365,449.523L872.365,448.254L885.662,448.254L885.662,449.523C881.637,449.794 881.177,449.975 881.177,453.871L881.177,471.766C881.177,474.214 881.432,475.117 882.352,475.572C883.371,476.07 885.099,476.161 887.243,476.161C890.044,476.161 891.776,475.935 892.947,474.757C893.862,473.851 894.782,472.402 895.546,470.316L897.074,470.59Z" style="fill:rgb(3,4,5);fill-rule:nonzero;"/>
                </g>
                <g transform="matrix(1.73221,0,0,1.73221,-344.895,-399.162)">
                    <path d="M867.719,465.29C864.659,465.651 864.459,465.877 864.459,468.551L864.459,472.446C864.459,474.032 864.508,475.481 864.816,476.75C861.654,477.386 857.478,478.383 853.404,478.383C842.193,478.383 834.708,472.174 834.708,463.159C834.708,452.695 844.181,447.574 854.168,447.574C858.447,447.574 862.319,448.571 863.999,448.89C864.15,450.474 864.405,452.966 864.762,455.956L863.337,456.226C862.114,450.655 858.295,449.16 853.404,449.16C845.605,449.16 839.902,454.279 839.902,462.617C839.902,469.184 844.23,476.795 854.065,476.795C855.798,476.795 857.375,476.525 858.496,476.026C859.514,475.528 860.126,474.938 860.126,473.036L860.126,469.184C860.126,465.923 859.822,465.607 854.78,465.29L854.78,464.018L867.719,464.018L867.719,465.29Z" style="fill:rgb(3,4,5);fill-rule:nonzero;"/>
                </g>
                <g transform="matrix(1.73221,0,0,1.73221,-344.895,-398.46)">
                    <path d="M831.183,449.118C828.329,449.253 827.105,449.843 826.904,451.792C826.699,453.194 826.596,455.234 826.596,459.447L826.596,477.703L825.019,477.703L803.317,453.965L803.214,453.965L803.214,465.336C803.214,469.505 803.366,471.681 803.517,472.994C803.772,475.304 804.947,475.846 808.408,476.028L808.408,477.298L796.336,477.298L796.336,476.028C799.239,475.891 800.565,475.304 800.82,473.083C800.972,471.681 801.124,469.459 801.124,465.336L801.124,455.369C801.124,452.062 801.021,451.836 800.105,450.795C799.033,449.661 797.966,449.3 795.572,449.118L795.572,447.849L803.057,447.849L824.353,470.59L824.51,470.59L824.51,459.447C824.51,455.234 824.353,453.194 824.153,451.927C823.898,449.843 822.723,449.253 819.159,449.118L819.159,447.849L831.183,447.849L831.183,449.118Z" style="fill:rgb(3,4,5);fill-rule:nonzero;"/>
                </g>
                <g transform="matrix(1.73221,0,0,1.73221,-344.895,-400.339)">
                    <path d="M775.744,454.144L775.641,454.144C774.011,457.996 772.43,461.982 770.854,465.695L780.224,465.695L775.744,454.144ZM780.738,478.383L780.738,477.113C783.945,476.75 784.405,476.389 783.739,474.622C783.078,472.854 782.06,470.409 780.939,467.645L770.09,467.645C769.272,469.682 768.509,471.587 767.848,473.487C766.776,476.343 767.182,476.794 771.055,477.113L771.055,478.383L759.951,478.383L759.951,477.113C763.212,476.706 763.921,476.433 765.655,472.402L776.2,448.662L777.781,448.254C780.939,456.002 784.351,464.654 787.611,472.537C789.193,476.433 789.908,476.841 793.217,477.113L793.217,478.383L780.738,478.383Z" style="fill:rgb(3,4,5);fill-rule:nonzero;"/>
                </g>
                <g transform="matrix(1.73221,0,0,1.73221,-344.895,-399.161)">
                    <path d="M743.947,463.476C744.608,463.701 745.984,464.018 747.668,464.018C750.977,464.018 755.055,462.435 755.055,456.68C755.055,451.787 751.54,449.705 747.359,449.705C745.935,449.705 744.863,449.929 744.505,450.248C744.099,450.52 743.947,451.063 743.947,452.376L743.947,463.476ZM748.074,448.254C751.692,448.254 754.644,448.797 756.686,450.11C758.668,451.47 759.946,453.555 759.946,456.501C759.946,462.388 755.002,465.243 750.008,465.788C749.244,465.876 748.28,465.876 747.717,465.832L743.947,464.971L743.947,472.085C743.947,475.935 744.407,476.161 748.99,476.433L748.99,477.703L735.183,477.703L735.183,476.433C739.261,476.161 739.667,475.797 739.667,472.039L739.667,453.915C739.667,449.929 739.261,449.749 735.491,449.523L735.491,448.254L748.074,448.254Z" style="fill:rgb(3,4,5);fill-rule:nonzero;"/>
                </g>
                <g transform="matrix(1.73221,0,0,1.73221,-344.895,-409.901)">
                    <path d="M725.622,456.538C724.574,453.082 722.91,449.3 717.539,449.3C712.79,449.3 710.692,452.314 710.692,455.276C710.692,459.279 713.654,461.198 718.528,463.392C723.401,465.639 729.2,468.164 729.2,474.358C729.2,480.118 723.71,484.722 715.505,484.722C712.976,484.722 710.94,484.284 709.459,483.902C707.916,483.462 706.991,483.024 706.374,482.749C705.941,481.597 705.138,476.883 704.707,474.249L706.558,473.865C707.483,477.211 710.259,482.749 716.677,482.749C721.365,482.749 724.079,480.171 724.079,476.17C724.079,472.111 720.687,470.192 716.06,467.999C712.11,466.079 705.88,463.392 705.88,457.195C705.88,451.932 710.631,447.435 718.589,447.435C721.426,447.435 724.018,448.038 726.361,448.694C726.611,450.613 726.919,452.807 727.411,456.263L725.622,456.538Z" style="fill:rgb(3,4,5);fill-rule:nonzero;"/>
                </g>
                <g transform="matrix(1.73221,0,0,1.73221,-344.895,-401.041)">
                    <path d="M659.8,453.79C659.8,456.27 661.464,457.94 664.681,460.133C667.202,458.464 668.648,456.603 668.648,454.027C668.648,451.307 666.825,449.018 664.144,449.018C661.677,449.018 659.8,450.925 659.8,453.79ZM672.347,471.871C669.508,469.053 666.076,466.144 661.195,462.616C657.655,464.856 656.314,467.099 656.314,469.435C656.314,474.016 660.23,476.212 663.77,476.212C667.361,476.212 670.58,474.065 672.347,471.871ZM687.308,459.751C683.555,460.133 682.858,460.993 681.088,463.329C679.588,465.192 678.3,467.148 676.425,469.675C678.677,471.631 683.555,476.449 685.164,479.216L684.787,479.645C681.84,479.407 678.89,478.308 678.247,477.688C677.605,477.022 675.35,474.78 673.581,473.156C669.721,477.737 666.181,479.454 662.321,479.454C655.565,479.454 651.756,474.971 651.756,470.818C651.756,466.384 655.242,464.474 659.8,461.563C657.386,459.561 655.939,457.511 655.939,454.936C655.939,450.641 660.015,447.397 664.734,447.397C669.077,447.397 672.67,450.163 672.67,453.981C672.67,455.937 671.544,457.32 670.418,458.177C669.4,458.941 668.166,459.847 666.076,461.088C667.843,462.425 671.652,465.334 675.084,468.482C676.371,466.717 677.282,465.094 678.3,462.996C679.372,460.753 678.836,460.18 675.03,459.751L675.03,458.415L687.308,458.415L687.308,459.751Z" style="fill:rgb(3,4,5);fill-rule:nonzero;"/>
                </g>
                <g transform="matrix(1.73221,0,0,1.73221,-344.895,-410.847)">
                    <path d="M272.155,457.716C271.546,455.082 270.934,453.711 270.261,452.835C269.22,451.517 268.244,451.079 263.6,451.079L259.321,451.079L259.321,478.112C259.321,482.446 259.811,482.994 265.554,483.325L265.554,484.859L248.076,484.859L248.076,483.325C253.638,482.994 254.125,482.446 254.125,478.112L254.125,451.079L250.335,451.079C245.261,451.079 244.042,451.573 243.244,452.779C242.512,453.711 242.025,455.301 241.291,457.716L239.518,457.716C239.822,454.423 240.13,450.86 240.253,447.844L241.472,447.844C242.329,449.104 243.124,449.216 244.835,449.216L268.976,449.216C270.626,449.216 271.115,448.885 272.033,447.844L273.318,447.844C273.377,450.366 273.622,454.37 273.989,457.549L272.155,457.716Z" style="fill:rgb(3,4,5);fill-rule:nonzero;"/>
                </g>
                <g transform="matrix(1.73221,0,0,1.73221,-344.895,-399.874)">
                    <path d="M423.586,463.413C426.113,463.413 427.777,463.049 429.04,462.099C431.008,460.739 431.816,458.927 431.816,456.482C431.816,451.586 428.232,449.775 424.443,449.775C422.98,449.775 422.123,449.956 421.716,450.229C421.315,450.455 421.163,450.953 421.163,452.222L421.163,463.413L423.586,463.413ZM442.117,478.089C441.509,478.089 440.902,478.089 440.349,478.045C436.511,477.865 434.44,476.869 432.169,473.923C430.401,471.703 428.585,468.894 427.067,466.673C426.211,465.406 425.354,464.861 422.778,464.861L421.163,464.861L421.163,472.066C421.163,475.916 421.619,476.188 425.603,476.459L425.603,477.728L412.38,477.728L412.38,476.459C416.517,476.188 416.923,475.916 416.923,472.066L416.923,453.853C416.923,450.003 416.517,449.868 412.581,449.549L412.581,448.279L425.099,448.279C428.785,448.279 431.258,448.689 433.128,449.821C435.199,451 436.511,453.037 436.511,455.755C436.511,459.651 433.784,462.052 430.098,463.547C430.959,464.996 433.079,468.033 434.592,470.073C436.408,472.428 437.421,473.606 438.68,474.782C439.992,476.142 441.206,476.64 442.317,476.913L442.117,478.089Z" style="fill:rgb(3,4,5);fill-rule:nonzero;"/>
                </g>
                <g transform="matrix(1.73221,0,0,1.73221,-344.895,-400.499)">
                    <path d="M408.342,470.932C408.038,472.427 407.03,476.685 406.574,478.089L382.238,478.089L382.238,476.819C386.835,476.503 387.236,476.139 387.236,472.427L387.236,454.395C387.236,450.363 386.835,450.182 382.899,449.91L382.899,448.64L405.414,448.64C405.414,449.774 405.664,452.855 405.816,455.166L404.351,455.347C403.901,453.442 403.392,452.446 402.736,451.496C402.031,450.499 400.67,450.182 397.032,450.182L393.194,450.182C391.633,450.182 391.53,450.317 391.53,451.631L391.53,461.961L396.273,461.961C400.871,461.961 401.12,461.598 401.727,458.561L403.191,458.561L403.191,467.215L401.727,467.215C401.071,463.999 400.719,463.727 396.327,463.727L391.53,463.727L391.53,472.29C391.53,474.421 391.833,475.418 392.739,475.958C393.699,476.549 395.466,476.549 397.992,476.549C401.83,476.549 403.24,476.186 404.351,475.008C405.213,474.102 406.173,472.516 406.878,470.75L408.342,470.932Z" style="fill:rgb(3,4,5);fill-rule:nonzero;"/>
                </g>
                <g transform="matrix(1.73221,0,0,1.73221,-344.895,-400.499)">
                    <path d="M354.93,472.153C354.93,475.597 356.599,476.456 360.281,476.456C369.671,476.456 374.067,470.115 374.067,462.867C374.067,458.2 372.148,454.122 368.109,451.994C365.837,450.727 362.91,450.136 359.527,450.136C357.407,450.136 356.09,450.363 355.586,450.727C355.131,450.997 354.93,451.496 354.93,453.307L354.93,472.153ZM360.486,448.64C366.895,448.64 371.59,449.774 374.723,452.492C377.244,454.667 379.011,457.974 379.011,462.232C379.011,467.67 376.642,471.701 372.804,474.328C369.015,476.955 363.967,478.089 357.809,478.089L345.893,478.089L345.893,476.866C350.235,476.594 350.641,476.321 350.641,472.471L350.641,454.258C350.641,450.363 350.235,450.182 346.348,449.91L346.348,448.64L360.486,448.64Z" style="fill:rgb(3,4,5);fill-rule:nonzero;"/>
                </g>
                <g transform="matrix(1.73221,0,0,1.73221,-344.895,-401.677)">
                    <path d="M325.951,454.532L325.853,454.532C324.238,458.382 322.671,462.369 321.105,466.084L330.397,466.084L325.951,454.532ZM330.901,478.769L330.901,477.499C334.083,477.136 334.536,476.775 333.88,475.008C333.221,473.242 332.213,470.795 331.102,468.03L320.351,468.03C319.543,470.07 318.784,471.973 318.128,473.876C317.066,476.731 317.472,477.183 321.31,477.499L321.31,478.769L310.302,478.769L310.302,477.499C313.533,477.092 314.241,476.819 315.957,472.788L326.407,449.05L327.973,448.64C331.102,456.388 334.484,465.04 337.715,472.926C339.282,476.819 339.987,477.229 343.268,477.499L343.268,478.769L330.901,478.769Z" style="fill:rgb(3,4,5);fill-rule:nonzero;"/>
                </g>
                <g transform="matrix(1.73221,0,0,1.73221,-344.895,-399.874)">
                    <path d="M289.861,463.413C292.382,463.413 294.051,463.049 295.312,462.099C297.282,460.739 298.09,458.927 298.09,456.482C298.09,451.586 294.504,449.775 290.717,449.775C289.253,449.775 288.397,449.956 287.99,450.229C287.589,450.455 287.437,450.953 287.437,452.222L287.437,463.413L289.861,463.413ZM308.388,478.089C307.784,478.089 307.176,478.089 306.621,478.045C302.785,477.865 300.714,476.869 298.443,473.923C296.675,471.703 294.859,468.894 293.341,466.673C292.484,465.406 291.628,464.861 289.053,464.861L287.437,464.861L287.437,472.066C287.437,475.916 287.89,476.188 291.878,476.459L291.878,477.728L278.649,477.728L278.649,476.459C282.791,476.188 283.195,475.916 283.195,472.066L283.195,453.853C283.195,450.003 282.791,449.868 278.855,449.549L278.855,448.279L291.373,448.279C295.06,448.279 297.532,448.689 299.402,449.821C301.473,451 302.785,453.037 302.785,455.755C302.785,459.651 300.058,462.052 296.372,463.547C297.228,464.996 299.351,468.033 300.866,470.073C302.682,472.428 303.691,473.606 304.954,474.782C306.266,476.142 307.48,476.64 308.591,476.913L308.388,478.089Z" style="fill:rgb(3,4,5);fill-rule:nonzero;"/>
                </g>
                <g transform="matrix(1.73221,0,0,1.73221,-344.895,-409.989)">
                    <path d="M464.295,464.952C464.295,475.263 470.588,482.772 479.203,482.772C486.047,482.772 492.097,477.676 492.097,467.145C492.097,455.578 485.372,449.436 477.307,449.436C470.523,449.436 464.295,454.645 464.295,464.952ZM498.33,465.666C498.33,477.51 489.099,484.748 477.918,484.748C466.861,484.748 458.062,477.073 458.062,466.489C458.062,456.621 465.759,447.46 478.652,447.46C488.98,447.46 498.33,454.645 498.33,465.666" style="fill:rgb(3,4,5);fill-rule:nonzero;"/>
                </g>
                <g transform="matrix(1.73221,0,0,1.73221,-344.895,-399.874)">
                    <path d="M512.964,463.413C515.49,463.413 517.155,463.049 518.418,462.099C520.386,460.739 521.194,458.927 521.194,456.482C521.194,451.586 517.61,449.775 513.821,449.775C512.357,449.775 511.5,449.956 511.094,450.229C510.693,450.455 510.541,450.953 510.541,452.222L510.541,463.413L512.964,463.413ZM531.494,478.089C530.887,478.089 530.28,478.089 529.727,478.045C525.889,477.865 523.818,476.869 521.546,473.923C519.779,471.703 517.962,468.894 516.45,466.673C515.588,465.406 514.731,464.861 512.156,464.861L510.541,464.861L510.541,472.066C510.541,475.916 510.996,476.188 514.981,476.459L514.981,477.728L501.758,477.728L501.758,476.459C505.895,476.188 506.301,475.916 506.301,472.066L506.301,453.853C506.301,450.003 505.895,449.868 501.959,449.549L501.959,448.279L514.477,448.279C518.163,448.279 520.635,448.689 522.505,449.821C524.576,451 525.889,453.037 525.889,455.755C525.889,459.651 523.162,462.052 519.475,463.547C520.337,464.996 522.456,468.033 523.969,470.073C525.786,472.428 526.799,473.606 528.057,474.782C529.374,476.142 530.583,476.64 531.695,476.913L531.494,478.089Z" style="fill:rgb(3,4,5);fill-rule:nonzero;"/>
                </g>
                <g transform="matrix(1.73221,0,0,1.73221,-344.895,-401.209)">
                    <path d="M559.735,456.435C559.231,454.26 558.727,453.128 558.174,452.402C557.312,451.316 556.504,450.953 552.671,450.953L549.137,450.953L549.137,473.287C549.137,476.866 549.538,477.32 554.287,477.59L554.287,478.86L539.844,478.86L539.844,477.59C544.442,477.32 544.843,476.866 544.843,473.287L544.843,450.953L541.715,450.953C537.524,450.953 536.515,451.36 535.859,452.357C535.252,453.128 534.846,454.442 534.244,456.435L532.775,456.435C533.03,453.715 533.284,450.771 533.382,448.279L534.391,448.279C535.1,449.323 535.757,449.411 537.171,449.411L557.111,449.411C558.477,449.411 558.879,449.141 559.638,448.279L560.695,448.279C560.749,450.364 560.949,453.671 561.253,456.3L559.735,456.435Z" style="fill:rgb(3,4,5);fill-rule:nonzero;"/>
                </g>
                <g transform="matrix(1.73221,0,0,1.73221,-344.895,-399.188)">
                    <path d="M569.2,462.035C569.2,470.554 574.399,476.758 581.517,476.758C587.172,476.758 592.17,472.547 592.17,463.846C592.17,454.289 586.614,449.214 579.951,449.214C574.345,449.214 569.2,453.518 569.2,462.035ZM597.32,462.624C597.32,472.41 589.693,478.39 580.455,478.39C571.32,478.39 564.049,472.049 564.049,463.304C564.049,455.151 570.409,447.582 581.062,447.582C589.595,447.582 597.32,453.518 597.32,462.624" style="fill:rgb(3,4,5);fill-rule:nonzero;"/>
                </g>
                <g transform="matrix(1.73221,0,0,1.73221,-344.895,-399.951)">
                    <path d="M634.887,449.549C632.032,449.684 630.808,450.273 630.608,452.222C630.402,453.624 630.299,455.664 630.299,459.877L630.299,478.133L628.723,478.133L607.02,454.395L606.918,454.395L606.918,465.767C606.918,469.936 607.069,472.111 607.221,473.424C607.476,475.735 608.651,476.277 612.112,476.459L612.112,477.728L600.039,477.728L600.039,476.459C602.942,476.321 604.269,475.735 604.524,473.513C604.676,472.111 604.827,469.889 604.827,465.767L604.827,455.799C604.827,452.492 604.724,452.267 603.809,451.225C602.737,450.091 601.669,449.73 599.276,449.549L599.276,448.279L606.761,448.279L628.057,471.021L628.214,471.021L628.214,459.877C628.214,455.664 628.057,453.624 627.856,452.357C627.602,450.273 626.427,449.684 622.863,449.549L622.863,448.279L634.887,448.279L634.887,449.549Z" style="fill:rgb(3,4,5);fill-rule:nonzero;"/>
                </g>
            </g>
            <g transform="matrix(1.07141,0,0,1.07141,84.5383,-10.7558)">
                <path d="M164.029,420.504C163.843,421.294 163.401,422.827 163.075,423.431C162.611,423.547 160.868,423.896 159.729,423.896C155.5,423.896 153.501,421.201 153.501,418.319C153.501,414.833 156.383,412.508 160.101,412.508C161.565,412.508 162.774,412.834 163.379,412.997C163.517,413.927 163.564,414.786 163.703,415.856L163.03,415.972C162.564,413.95 161.403,413.253 159.707,413.253C157.359,413.253 155.686,415.252 155.686,418.041C155.686,421.061 157.544,423.13 159.799,423.13C161.473,423.13 162.519,422.2 163.379,420.341L164.029,420.504ZM198.481,420.735C198.363,421.432 198.017,423.13 197.876,423.595L188.907,423.595L188.907,422.967C190.557,422.827 190.672,422.689 190.672,421.038L190.672,415.367C190.672,413.672 190.557,413.554 189.068,413.461L189.068,412.811L197.435,412.811C197.46,413.275 197.528,414.414 197.621,415.483L196.993,415.53C196.783,414.81 196.597,414.414 196.366,414.113C196.065,413.74 195.692,413.579 194.437,413.579L193.206,413.579C192.601,413.579 192.554,413.601 192.554,414.229L192.554,417.575L194.25,417.575C195.644,417.575 195.762,417.436 195.97,416.298L196.622,416.298L196.622,419.807L195.97,419.807C195.762,418.62 195.644,418.458 194.25,418.458L192.554,418.458L192.554,421.131C192.554,422.014 192.669,422.433 192.95,422.619C193.229,422.804 193.788,422.852 194.739,422.852C195.925,422.852 196.527,422.711 196.948,422.27C197.224,421.944 197.528,421.457 197.831,420.62L198.481,420.735ZM234.351,423.735L233.816,423.735C231.955,423.735 231.213,423.223 230.515,422.223C230.004,421.48 229.354,420.386 229.028,419.807C228.609,419.11 228.353,418.947 227.448,418.947L226.936,418.947L226.936,421.109C226.936,422.711 227.076,422.852 228.587,422.967L228.587,423.595L223.427,423.595L223.427,422.967C224.962,422.852 225.1,422.734 225.1,421.109L225.1,415.32C225.1,413.624 224.962,413.554 223.497,413.438L223.497,412.811L228.609,412.811C229.795,412.811 230.656,412.949 231.353,413.368C232.025,413.787 232.537,414.53 232.537,415.6C232.537,417.11 231.446,417.971 230.33,418.387C230.608,418.854 231.328,420.063 231.865,420.805C232.444,421.643 232.748,422.014 233.142,422.433C233.536,422.852 234.002,423.06 234.421,423.198L234.351,423.735ZM227.889,418.227C228.539,418.227 229.098,418.134 229.587,417.853C230.189,417.482 230.493,416.714 230.493,415.902C230.493,414.206 229.354,413.531 228.007,413.531C227.029,413.531 226.936,413.74 226.936,414.437L226.936,418.227L227.889,418.227ZM267.524,415.786C267.316,414.878 267.128,414.369 266.921,414.065C266.618,413.694 266.107,413.554 265.085,413.554L264.062,413.554L264.062,421.016C264.062,422.711 264.2,422.827 265.873,422.945L265.873,423.595L260.39,423.595L260.39,422.945C262.016,422.827 262.156,422.711 262.156,421.038L262.156,413.554L261.434,413.554C259.994,413.554 259.645,413.717 259.342,414.136C259.111,414.484 258.948,414.926 258.762,415.786L258.112,415.786C258.183,414.437 258.298,413.23 258.321,412.415L258.81,412.415C259.066,412.786 259.274,412.834 259.715,412.811L266.641,412.811C267.107,412.811 267.245,412.718 267.501,412.415L267.99,412.415C267.99,413.135 268.081,414.74 268.198,415.738L267.524,415.786ZM293.237,423.595L293.237,422.967C294.725,422.852 294.865,422.734 294.865,421.061L294.865,415.344C294.865,413.647 294.725,413.554 293.237,413.438L293.237,412.811L298.397,412.811L298.397,413.438C296.887,413.579 296.747,413.647 296.747,415.344L296.747,421.061C296.747,422.734 296.887,422.852 298.397,422.967L298.397,423.595L293.237,423.595ZM331.456,415.576C331.246,414.833 331.083,414.437 330.83,414.113C330.596,413.787 330.155,413.554 328.876,413.554L327.737,413.554C327.133,413.554 327.087,413.579 327.087,414.181L327.087,417.83L328.876,417.83C330.386,417.83 330.503,417.715 330.735,416.553L331.386,416.553L331.386,420.063L330.735,420.063C330.503,418.784 330.411,418.691 328.876,418.691L327.087,418.691L327.087,421.109C327.087,422.711 327.25,422.852 328.969,422.967L328.969,423.595L323.624,423.595L323.624,422.967C325.088,422.852 325.204,422.689 325.204,421.109L325.204,415.297C325.204,413.647 325.088,413.554 323.624,413.438L323.624,412.811L331.921,412.811C331.943,413.253 331.991,414.391 332.107,415.53L331.456,415.576ZM357.401,423.595L357.401,422.967C358.888,422.852 359.029,422.734 359.029,421.061L359.029,415.344C359.029,413.647 358.888,413.554 357.401,413.438L357.401,412.811L362.561,412.811L362.561,413.438C361.051,413.579 360.91,413.647 360.91,415.344L360.91,421.061C360.91,422.734 361.051,422.852 362.561,422.967L362.561,423.595L357.401,423.595ZM397.176,420.735C397.06,421.432 396.712,423.13 396.572,423.595L387.602,423.595L387.602,422.967C389.25,422.827 389.368,422.689 389.368,421.038L389.368,415.367C389.368,413.672 389.25,413.554 387.763,413.461L387.763,412.811L396.13,412.811C396.153,413.275 396.223,414.414 396.316,415.483L395.689,415.53C395.48,414.81 395.292,414.414 395.061,414.113C394.758,413.74 394.387,413.579 393.133,413.579L391.901,413.579C391.296,413.579 391.249,413.601 391.249,414.229L391.249,417.575L392.947,417.575C394.341,417.575 394.457,417.436 394.665,416.298L395.317,416.298L395.317,419.807L394.665,419.807C394.457,418.62 394.341,418.458 392.947,418.458L391.249,418.458L391.249,421.131C391.249,422.014 391.367,422.433 391.645,422.619C391.924,422.804 392.481,422.852 393.434,422.852C394.62,422.852 395.224,422.711 395.641,422.27C395.922,421.944 396.223,421.457 396.526,420.62L397.176,420.735ZM427.445,412.811C429.444,412.811 431.164,413.205 432.326,414.274C433.163,415.041 433.768,416.298 433.768,417.83C433.768,421.806 430.56,423.595 426.747,423.595L422.099,423.595L422.099,422.967C423.657,422.852 423.797,422.711 423.797,421.084L423.797,415.367C423.797,413.647 423.657,413.554 422.24,413.438L422.24,412.811L427.445,412.811ZM425.679,420.991C425.679,422.478 426.052,422.827 427.377,422.827C430.141,422.827 431.583,420.991 431.583,418.156C431.583,414.763 429.722,413.554 427.166,413.554C426.494,413.554 426.027,413.672 425.889,413.857C425.749,413.995 425.679,414.299 425.679,414.926L425.679,420.991ZM483.609,412.811C486.12,412.811 487.746,413.74 487.746,415.994C487.746,418.109 486.143,419.202 484.166,419.458C483.865,419.504 483.587,419.504 483.331,419.504L481.959,419.155L481.959,421.177C481.959,422.734 482.099,422.827 483.795,422.967L483.795,423.595L478.472,423.595L478.472,422.967C479.96,422.827 480.1,422.734 480.1,421.201L480.1,415.344C480.1,413.647 479.96,413.554 478.565,413.438L478.565,412.811L483.609,412.811ZM481.959,418.412C482.26,418.528 482.726,418.643 483.306,418.643C484.121,418.643 485.654,418.295 485.654,416.017C485.654,414.229 484.47,413.509 483.098,413.509C481.982,413.509 481.959,413.694 481.959,414.484L481.959,418.412ZM524.987,413.438C523.871,413.531 523.452,413.717 523.382,414.53C523.314,415.066 523.266,415.831 523.266,417.389L523.266,418.668C523.266,420.224 522.94,421.711 521.987,422.664C521.222,423.454 520.059,423.896 518.827,423.896C517.736,423.896 516.712,423.687 515.9,423.06C514.946,422.315 514.412,421.109 514.412,419.155L514.412,415.32C514.412,413.694 514.272,413.579 512.784,413.438L512.784,412.811L517.874,412.811L517.874,413.438C516.411,413.579 516.294,413.694 516.294,415.32L516.294,418.643C516.294,421.317 517.34,422.757 519.316,422.757C521.408,422.757 522.384,421.177 522.384,418.458L522.384,417.389C522.384,415.786 522.336,415.066 522.268,414.53C522.175,413.717 521.779,413.509 520.455,413.438L520.455,412.811L524.987,412.811L524.987,413.438ZM556.487,417.692C558.16,417.923 559.415,418.668 559.415,420.341C559.415,422.852 556.696,423.595 554.117,423.595L549.655,423.595L549.655,422.967C551.188,422.827 551.327,422.734 551.327,421.061L551.327,415.46C551.327,413.647 551.188,413.554 549.747,413.438L549.747,412.811L555.115,412.811C557.277,412.811 558.695,413.461 558.695,415.274C558.695,416.807 557.3,417.436 556.487,417.645L556.487,417.692ZM554.233,417.459C555.627,417.459 556.673,416.948 556.673,415.53C556.673,414.02 555.534,413.509 554.372,413.509C553.326,413.509 553.164,413.764 553.164,414.484L553.164,417.459L554.233,417.459ZM553.164,421.084C553.164,422.619 553.721,422.875 554.674,422.875C556.114,422.875 557.252,422.06 557.252,420.457C557.252,418.784 556.021,418.202 554.255,418.202L553.164,418.202L553.164,421.084ZM594.007,420.572C593.867,421.269 593.52,423.083 593.38,423.595L584.687,423.595L584.687,422.967C586.312,422.852 586.432,422.734 586.432,421.061L586.432,415.297C586.432,413.624 586.292,413.554 584.802,413.438L584.802,412.811L590.034,412.811L590.034,413.438C588.454,413.554 588.313,413.624 588.313,415.297L588.313,421.294C588.313,422.107 588.429,422.526 588.73,422.689C589.081,422.827 589.638,422.875 590.426,422.875C591.498,422.852 592.101,422.711 592.497,422.27C592.823,421.899 593.029,421.387 593.355,420.504L594.007,420.572ZM618.72,423.595L618.72,422.967C620.209,422.852 620.35,422.734 620.35,421.061L620.35,415.344C620.35,413.647 620.209,413.554 618.72,413.438L618.72,412.811L623.882,412.811L623.882,413.438C622.371,413.579 622.231,413.647 622.231,415.344L622.231,421.061C622.231,422.734 622.371,422.852 623.882,422.967L623.882,423.595L618.72,423.595ZM659.611,420.504C659.425,421.294 658.984,422.827 658.658,423.431C658.196,423.547 656.451,423.896 655.312,423.896C651.083,423.896 649.082,421.201 649.082,418.319C649.082,414.833 651.965,412.508 655.683,412.508C657.148,412.508 658.357,412.834 658.959,412.997C659.099,413.927 659.145,414.786 659.285,415.856L658.613,415.972C658.146,413.95 656.987,413.253 655.287,413.253C652.943,413.253 651.268,415.252 651.268,418.041C651.268,421.061 653.129,423.13 655.382,423.13C657.057,423.13 658.101,422.2 658.959,420.341L659.611,420.504ZM710.798,423.595L710.798,422.967L711.239,422.92C711.936,422.827 712.077,422.641 711.751,421.806L711.103,420.063L707.291,420.063C707.105,420.527 706.919,421.061 706.754,421.688C706.478,422.619 706.709,422.804 707.381,422.897L707.942,422.967L707.942,423.595L703.734,423.595L703.734,422.967C704.802,422.852 705.244,422.689 705.941,420.991L709.358,412.671L710.055,412.485L713.657,421.387C714.193,422.757 714.61,422.897 715.679,422.967L715.679,423.595L710.798,423.595ZM709.217,415.089L709.172,415.089L707.637,419.155L710.732,419.155L709.217,415.089ZM750.645,420.504C750.459,421.294 750.017,422.827 749.692,423.431C749.225,423.547 747.484,423.896 746.345,423.896C742.112,423.896 740.115,421.201 740.115,418.319C740.115,414.833 742.995,412.508 746.717,412.508C748.182,412.508 749.386,412.834 749.992,412.997C750.133,413.927 750.178,414.786 750.319,415.856L749.642,415.972C749.18,413.95 748.016,413.253 746.32,413.253C743.973,413.253 742.298,415.252 742.298,418.041C742.298,421.061 744.159,423.13 746.411,423.13C748.086,423.13 749.13,422.2 749.992,420.341L750.645,420.504ZM786.328,420.504C786.143,421.294 785.701,422.827 785.375,423.431C784.909,423.547 783.168,423.896 782.029,423.896C777.796,423.896 775.799,421.201 775.799,418.319C775.799,414.833 778.679,412.508 782.401,412.508C783.865,412.508 785.07,412.834 785.677,412.997C785.817,413.927 785.862,414.786 786.002,415.856L785.326,415.972C784.864,413.95 783.7,413.253 782.005,413.253C779.657,413.253 777.982,415.252 777.982,418.041C777.982,421.061 779.842,423.13 782.095,423.13C783.771,423.13 784.814,422.2 785.677,420.341L786.328,420.504ZM823.056,418.086C823.056,421.944 820.106,423.896 817.292,423.896C813.575,423.896 811.458,421.154 811.458,418.412C811.458,414.299 814.714,412.508 817.317,412.508C820.709,412.508 823.056,414.926 823.056,418.086ZM813.645,417.878C813.645,420.991 815.246,423.176 817.523,423.176C819.293,423.176 820.874,421.899 820.874,418.55C820.874,415.902 819.479,413.253 817.061,413.253C815.295,413.253 813.645,414.81 813.645,417.878ZM860.18,413.438C859.066,413.531 858.645,413.717 858.575,414.53C858.509,415.066 858.46,415.831 858.46,417.389L858.46,418.668C858.46,420.224 858.134,421.711 857.181,422.664C856.417,423.454 855.254,423.896 854.02,423.896C852.931,423.896 851.908,423.687 851.095,423.06C850.142,422.315 849.605,421.109 849.605,419.155L849.605,415.32C849.605,413.694 849.465,413.579 847.98,413.438L847.98,412.811L853.067,412.811L853.067,413.438C851.606,413.579 851.487,413.694 851.487,415.32L851.487,418.643C851.487,421.317 852.535,422.757 854.511,422.757C856.603,422.757 857.577,421.177 857.577,418.458L857.577,417.389C857.577,415.786 857.531,415.066 857.461,414.53C857.37,413.717 856.974,413.509 855.65,413.438L855.65,412.811L860.18,412.811L860.18,413.438ZM896.887,413.438C895.794,413.531 895.377,413.717 895.283,414.437C895.212,415.066 895.167,415.809 895.167,417.436L895.167,423.71L894.399,423.71L887.381,415.274L887.356,415.274L887.356,418.947C887.356,420.549 887.426,421.41 887.497,421.944C887.592,422.664 888.008,422.875 889.312,422.967L889.312,423.595L884.778,423.595L884.778,422.967C885.846,422.875 886.267,422.664 886.358,421.967C886.428,421.41 886.498,420.549 886.498,418.947L886.498,415.831C886.498,413.903 886.102,413.554 884.522,413.438L884.522,412.811L887.662,412.811L894.259,420.411L894.309,420.411L894.309,417.436C894.309,415.809 894.259,415.066 894.189,414.484C894.098,413.717 893.727,413.531 892.378,413.438L892.378,412.811L896.887,412.811L896.887,413.438ZM930.966,415.786C930.756,414.878 930.57,414.369 930.36,414.065C930.059,413.694 929.547,413.554 928.524,413.554L927.505,413.554L927.505,421.016C927.505,422.711 927.641,422.827 929.316,422.945L929.316,423.595L923.833,423.595L923.833,422.945C925.458,422.827 925.598,422.711 925.598,421.038L925.598,413.554L924.877,413.554C923.436,413.554 923.086,413.717 922.785,414.136C922.554,414.484 922.388,414.926 922.203,415.786L921.555,415.786C921.621,414.437 921.741,413.23 921.761,412.415L922.252,412.415C922.508,412.786 922.714,412.834 923.156,412.811L930.083,412.811C930.546,412.811 930.686,412.718 930.942,412.415L931.432,412.415C931.432,413.135 931.523,414.74 931.639,415.738L930.966,415.786ZM962,423.595L962,422.967L962.442,422.92C963.139,422.827 963.279,422.641 962.953,421.806L962.305,420.063L958.493,420.063C958.307,420.527 958.122,421.061 957.957,421.688C957.681,422.619 957.911,422.804 958.584,422.897L959.145,422.967L959.145,423.595L954.937,423.595L954.937,422.967C956.005,422.852 956.447,422.689 957.144,420.991L960.56,412.671L961.257,412.485L964.859,421.387C965.396,422.757 965.812,422.897 966.881,422.967L966.881,423.595L962,423.595ZM960.42,415.089L960.375,415.089L958.84,419.155L961.934,419.155L960.42,415.089ZM1003.68,413.438C1002.59,413.531 1002.17,413.717 1002.08,414.437C1002.01,415.066 1001.96,415.809 1001.96,417.436L1001.96,423.71L1001.2,423.71L994.177,415.274L994.152,415.274L994.152,418.947C994.152,420.549 994.223,421.41 994.293,421.944C994.384,422.664 994.804,422.875 996.104,422.967L996.104,423.595L991.574,423.595L991.574,422.967C992.642,422.875 993.059,422.664 993.154,421.967C993.224,421.41 993.29,420.549 993.29,418.947L993.29,415.831C993.29,413.903 992.898,413.554 991.318,413.438L991.318,412.811L994.454,412.811L1001.06,420.411L1001.1,420.411L1001.1,417.436C1001.1,415.809 1001.06,415.066 1000.99,414.484C1000.89,413.717 1000.52,413.531 999.174,413.438L999.174,412.811L1003.68,412.811L1003.68,413.438ZM1037.76,415.786C1037.55,414.878 1037.37,414.369 1037.16,414.065C1036.85,413.694 1036.34,413.554 1035.32,413.554L1034.3,413.554L1034.3,421.016C1034.3,422.711 1034.44,422.827 1036.11,422.945L1036.11,423.595L1030.63,423.595L1030.63,422.945C1032.25,422.827 1032.39,422.711 1032.39,421.038L1032.39,413.554L1031.67,413.554C1030.23,413.554 1029.88,413.717 1029.58,414.136C1029.35,414.484 1029.18,414.926 1029,415.786L1028.35,415.786C1028.42,414.437 1028.54,413.23 1028.56,412.415L1029.05,412.415C1029.3,412.786 1029.51,412.834 1029.95,412.811L1036.88,412.811C1037.34,412.811 1037.48,412.718 1037.74,412.415L1038.23,412.415C1038.23,413.135 1038.32,414.74 1038.43,415.738L1037.76,415.786ZM1069.8,415.761C1069.33,414.344 1068.66,413.253 1067.29,413.253C1066.17,413.253 1065.55,414.065 1065.55,414.971C1065.55,416.18 1066.45,416.622 1067.59,417.11L1068.01,417.273C1069.56,417.901 1070.98,418.691 1070.98,420.572C1070.98,422.526 1069.26,423.896 1066.96,423.896C1065.47,423.896 1064.36,423.339 1063.94,423.083C1063.8,422.711 1063.57,421.34 1063.38,420.178L1064.06,420.063C1064.47,421.362 1065.5,423.153 1067.26,423.153C1068.4,423.153 1069.17,422.363 1069.17,421.294C1069.17,420.015 1068.21,419.504 1067.29,419.11L1066.78,418.876C1065.5,418.319 1063.85,417.505 1063.85,415.738C1063.85,413.832 1065.29,412.508 1067.7,412.508C1068.75,412.508 1069.61,412.811 1070.03,412.949C1070.19,413.647 1070.29,414.507 1070.45,415.668L1069.8,415.761Z" style="fill:rgb(3,4,5);fill-rule:nonzero;"/>
            </g>
            <g transform="matrix(0.712353,0,0,0.712353,72.3805,109.157)">
                <rect x="123" y="376.097" width="43.194" height="43.194" style="fill:rgb(96,66,85);"/>
            </g>
            <g transform="matrix(0.712353,0,0,0.712353,109.136,109.157)">
                <rect x="123" y="376.097" width="43.194" height="43.194" style="fill:rgb(98,86,50);"/>
            </g>
            <g transform="matrix(0.712353,0,0,0.712353,109.136,144.591)">
                <rect x="123" y="376.097" width="43.194" height="43.194" style="fill:rgb(149,93,12);"/>
            </g>
            <g transform="matrix(0.712353,0,0,0.712353,72.3805,144.726)">
                <rect x="123" y="376.097" width="43.194" height="43.194" style="fill:rgb(0,55,104);"/>
            </g>
        </g>
    </g>
</svg>
